<?xml version="1.0" encoding="utf-8"?><svg version="1.1" id="Layer_1" xmlns="http://www.w3.org/2000/svg" xmlns:xlink="http://www.w3.org/1999/xlink" x="0px" y="0px" viewBox="0 0 122.88 122.34" style="enable-background:new 0 0 122.88 122.34" xml:space="preserve"><style type="text/css"><![CDATA[
	.st0{fill-rule:evenodd;clip-rule:evenodd;}
]]></style><g><path class="st0" d="M60.83,0c5.44,0,10.37,2.21,13.93,5.77c3.57,3.57,5.77,8.49,5.77,13.93s-2.21,10.37-5.77,13.93 c-3.57,3.57-8.49,5.77-13.93,5.77c-5.44,0-10.37-2.21-13.93-5.77c-3.57-3.56-5.77-8.49-5.77-13.93c0-5.44,2.21-10.37,5.77-13.93 C50.46,2.21,55.39,0,60.83,0L60.83,0z M60.83,82.93c5.44,0,10.37,2.21,13.93,5.77c3.57,3.57,5.77,8.49,5.77,13.93 c0,5.44-2.21,10.37-5.77,13.93c-3.57,3.57-8.49,5.77-13.93,5.77c-5.44,0-10.37-2.21-13.93-5.77c-3.57-3.56-5.77-8.49-5.77-13.93 c0-5.44,2.21-10.37,5.77-13.93C50.46,85.14,55.39,82.93,60.83,82.93L60.83,82.93z M64.24,105.91h-4.65c0.05,1.31,0.4,2.28,1.06,2.9 c0.66,0.63,1.75,0.94,3.27,0.94c0.98,0,1.86-0.15,2.62-0.45l0.64,4c-1.32,0.3-2.63,0.45-3.91,0.45c-2.68,0-4.82-0.7-6.42-2.08 c-1.59-1.39-2.43-3.31-2.51-5.77h-2.46v-2.38h2.46v-1.82h-2.46v-2.37h2.5c0.19-2.46,1.11-4.38,2.77-5.77 c1.66-1.38,3.85-2.07,6.57-2.07c1.05,0,2.21,0.15,3.46,0.46l-0.64,4.02c-0.77-0.31-1.6-0.46-2.49-0.46c-1.37,0-2.42,0.31-3.14,0.93 c-0.73,0.62-1.15,1.58-1.28,2.88h4.6v2.37h-4.65v1.81h4.65V105.91L64.24,105.91L64.24,105.91z M19.7,39.69 c5.44,0,10.37,2.21,13.93,5.77c3.57,3.57,5.77,8.49,5.77,13.93s-2.21,10.37-5.77,13.93c-3.57,3.57-8.49,5.77-13.93,5.77 S9.34,76.89,5.77,73.33C2.21,69.76,0,64.84,0,59.4s2.21-10.37,5.77-13.93C9.34,41.9,14.26,39.69,19.7,39.69L19.7,39.69z M27.66,53.95l-5.14,0.81c-0.26-0.65-0.49-1.1-0.7-1.35c-0.21-0.25-0.55-0.5-1.03-0.76v3.99c2.79,0.75,4.66,1.54,5.6,2.36 c1.24,1.12,1.86,2.53,1.86,4.24c0,1-0.22,1.92-0.67,2.76c-0.45,0.84-1.02,1.54-1.71,2.1c-0.69,0.56-1.43,0.97-2.21,1.22 c-0.78,0.25-1.74,0.4-2.87,0.45v1.79h-2.01v-1.79c-1.35-0.12-2.45-0.33-3.29-0.65c-0.84-0.32-1.57-0.75-2.18-1.31 c-0.61-0.56-1.08-1.16-1.41-1.8c-0.33-0.65-0.58-1.43-0.74-2.34l5.57-0.65c0.16,0.91,0.39,1.56,0.67,1.96 c0.28,0.4,0.74,0.76,1.39,1.07v-4.88c-1.87-0.51-3.19-0.96-3.96-1.34c-0.78-0.38-1.45-0.98-2.02-1.82 c-0.57-0.83-0.86-1.85-0.86-3.04c0-1.64,0.57-3.01,1.72-4.11c1.15-1.1,2.86-1.71,5.12-1.83v-1.79h2.01v1.79 c2.06,0.13,3.64,0.61,4.74,1.46C26.62,51.33,27.33,52.48,27.66,53.95L27.66,53.95L27.66,53.95z M18.79,52.58 c-0.59,0.19-1,0.43-1.23,0.72c-0.23,0.28-0.35,0.62-0.35,1.01c0,0.4,0.12,0.75,0.35,1.05c0.24,0.3,0.65,0.55,1.23,0.75V52.58 L18.79,52.58L18.79,52.58z M20.79,66.18c0.78-0.17,1.35-0.47,1.71-0.87s0.55-0.85,0.55-1.35c0-0.43-0.16-0.83-0.46-1.2 c-0.31-0.36-0.91-0.7-1.8-1.01V66.18L20.79,66.18L20.79,66.18z M103.18,39.69c5.44,0,10.37,2.21,13.93,5.77 c3.57,3.57,5.77,8.49,5.77,13.93s-2.21,10.37-5.77,13.93c-3.57,3.57-8.49,5.77-13.93,5.77c-5.44,0-10.37-2.21-13.93-5.77 c-3.57-3.56-5.77-8.49-5.77-13.93s2.21-10.37,5.77-13.93C92.81,41.9,97.73,39.69,103.18,39.69L103.18,39.69z M94.63,57.1l1.46-3.29 h5.51c-0.07-0.23-0.19-0.46-0.37-0.69c-0.17-0.22-0.39-0.42-0.64-0.58c-0.25-0.16-0.54-0.3-0.85-0.4c-0.31-0.1-0.65-0.15-1-0.15 h-4.11l1.46-3.29h15.76l-1.46,3.29h-3.81c0.15,0.12,0.29,0.25,0.42,0.4c0.13,0.15,0.24,0.31,0.34,0.47 c0.09,0.16,0.18,0.33,0.25,0.49c0.06,0.16,0.11,0.32,0.13,0.45h4.13l-1.46,3.29h-2.98c-0.22,0.56-0.54,1.09-0.98,1.58 c-0.43,0.5-0.94,0.95-1.51,1.34c-0.58,0.4-1.2,0.73-1.88,1c-0.67,0.27-1.36,0.45-2.05,0.55l8.28,8.53h-6.54L95.35,62v-3.02h3.27 c0.31,0,0.62-0.05,0.93-0.15c0.31-0.1,0.59-0.24,0.85-0.42c0.26-0.17,0.48-0.37,0.67-0.6c0.19-0.23,0.32-0.46,0.4-0.71H94.63 L94.63,57.1L94.63,57.1z M85.66,19.58c3.59,2.1,6.88,4.64,9.81,7.56c2.28,2.28,4.32,4.78,6.11,7.47c-2.76,0.18-5.41,0.82-7.88,1.84 h-0.02c-0.8,0.33-1.58,0.7-2.34,1.12c-0.92-1.17-1.91-2.28-2.97-3.33c-1.54-1.54-3.2-2.94-4.98-4.2c0.13-0.28,0.25-0.56,0.37-0.84 l0.01,0c1.22-2.94,1.89-6.16,1.89-9.5V19.58L85.66,19.58z M103.69,84.23c-2.21,4.04-4.99,7.74-8.22,10.97 c-2.92,2.92-6.22,5.47-9.81,7.56v-0.12c0-3.33-0.67-6.53-1.89-9.48v-0.02c-0.12-0.28-0.24-0.56-0.37-0.84 c1.78-1.25,3.44-2.66,4.97-4.19c1.81-1.81,3.45-3.81,4.87-5.96c0.15,0.07,0.3,0.13,0.46,0.19c2.95,1.22,6.15,1.89,9.48,1.89 C103.35,84.23,103.52,84.23,103.69,84.23L103.69,84.23z M36,102.03c-3.12-1.95-6-4.24-8.59-6.83c-3.23-3.23-6.01-6.93-8.22-10.97 c0.17,0,0.34,0,0.51,0c3.33,0,6.53-0.67,9.48-1.89h0.02c0.15-0.06,0.3-0.13,0.44-0.19c1.42,2.15,3.05,4.14,4.86,5.96 c1.27,1.27,2.63,2.45,4.07,3.53c-0.24,0.49-0.47,0.99-0.68,1.5l-0.01,0C36.74,95.9,36.08,98.9,36,102.03L36,102.03z M21.31,34.61 c1.79-2.69,3.83-5.19,6.11-7.47c2.59-2.59,5.47-4.88,8.59-6.83c0.08,3.13,0.74,6.12,1.89,8.89l0.01,0c0.21,0.51,0.44,1.01,0.68,1.5 c-1.44,1.08-2.8,2.26-4.07,3.53c-1.05,1.05-2.05,2.17-2.97,3.34c-0.76-0.41-1.53-0.78-2.34-1.12l0-0.01 C26.73,35.43,24.07,34.79,21.31,34.61L21.31,34.61z M60,17.56h4.3v3.39h-3.8c-0.05,0.8-0.19,1.52-0.44,2.16 c-0.2,0.49-0.53,1-0.99,1.52c0.53-0.12,0.98-0.17,1.36-0.17c0.48,0,1.11,0.09,1.88,0.28c1.06,0.24,1.9,0.36,2.54,0.36 c0.52,0,0.97-0.04,1.35-0.13c0.39-0.09,0.89-0.27,1.51-0.55l1.93,4.23c-0.93,0.46-1.75,0.79-2.46,0.97 c-0.71,0.18-1.46,0.27-2.28,0.27c-0.89,0-1.9-0.15-3.05-0.46c-1.5-0.41-2.43-0.65-2.79-0.72c-0.36-0.06-0.75-0.1-1.16-0.1 c-1.22,0-2.56,0.42-4.03,1.28l-1.84-4.03c1.99-1.42,2.99-2.84,2.99-4.26c0-0.08-0.01-0.29-0.03-0.64h-2.96v-3.39h2.12 c-0.36-1.24-0.57-1.97-0.61-2.17c-0.06-0.3-0.09-0.67-0.09-1.12c0-1.18,0.31-2.24,0.94-3.17c0.62-0.94,1.45-1.62,2.47-2.04 c1.02-0.42,2.4-0.64,4.14-0.64c1.62,0,2.91,0.18,3.85,0.55c0.95,0.36,1.75,0.97,2.4,1.81c0.66,0.85,1.11,1.87,1.35,3.06l-5.41,0.84 c-0.27-1-0.58-1.67-0.94-2c-0.35-0.33-0.75-0.49-1.2-0.49c-0.55,0-0.98,0.18-1.32,0.54c-0.34,0.36-0.51,0.87-0.51,1.52 c0,0.35,0.03,0.69,0.1,1.01C59.38,15.59,59.61,16.35,60,17.56L60,17.56L60,17.56z"/></g></svg>