<svg fill="none" height="24" viewBox="0 0 24 24" width="24" xmlns="http://www.w3.org/2000/svg"><path clip-rule="evenodd" d="m4.00427 2.50485c0-.27614.22386-.5.5-.5h15.00003c.2761 0 .5.22386.5.5v19.00005c0 .2761-.2239.5-.5.5h-15.00003c-.27614 0-.5-.2239-.5-.5v-4.0054h-1.51526c-.27614 0-.5-.2239-.5-.5 0-.2762.22386-.5.5-.5h1.51526v-4h-1.51526c-.27614 0-.5-.2239-.5-.5 0-.2762.22386-.5.5-.5h1.51526v-4.00002h-1.51526c-.27614 0-.5-.22386-.5-.5s.22386-.5.5-.5h1.51526zm1 18.50005v-4.0009l.00002-.0045-.00002-.0046v-4.9909l.00002-.0045-.00002-.0046v-4.99087l.00002-.00455-.00002-.00455v-3.99008h14.00003v18.00005zm5.66503-14.00493c.5207.05403 1.2218.31384 1.4805 1h-2.54268c-.19899 0-.37904.118-.45846.30045-.14374.33025.09829.69955.45846.69955h2.56638c-.1658.55028-.673 1.07263-2.0863.90823-.19148-.0717-.41556-.03327-.57328.1175-.21956.2099-.22738.5581-.01747.7776l.20789.2179-.00195.0059.50611.5226 2.2307 2.3382c.2099.2196.5581.2274.7777.0175.1528-.1462.203-.3593.1486-.5494l.008-.0054-.0142-.0149c-.0248-.0754-.0664-.1467-.125-.2079l-2.0123-2.1093c.7772-.1039 1.9578-.6349 2.0905-2.01853h1.0892c.2009 0 .3823-.12024.4605-.30527.1394-.32966-.1026-.69473-.4605-.69473h-1.1747c-.0781-.32454-.2085-.69573-.4596-1h1.6343c.2009 0 .3823-.12024.4605-.30527.1394-.32966-.1026-.69473-.4605-.69473h-4.79458c-.19899 0-.37904.118-.45846.30045-.14374.33025.09829.69955.45846.69955zm-1.16515 10.01903c-.27614 0-.5.2239-.5.5 0 .2762.22386.5.5.5h5.00005c.2761 0 .5-.2238.5-.5 0-.2761-.2239-.5-.5-.5z" fill="#101010" fill-rule="evenodd"/></svg>